<svg xmlns="http://www.w3.org/2000/svg" width="120" height="120">
  <defs>
    <linearGradient id="bg" x1="0%" y1="0%" x2="100%" y2="100%">
      <stop offset="0%" stop-color="#FB923C"/>
      <stop offset="100%" stop-color="#EA580C"/>
    </linearGradient>
  </defs>
  <rect width="120" height="120" rx="22" fill="url(#bg)"/>
  <svg x="20" y="20" width="80" height="80" viewBox="64 42 384 428">
    <path d="M0 0 C-0.57261162 4.95486757 -1.63889184 9.30237549 -3.3359375 13.98828125 C-3.68822922 14.96603767 -3.68822922 14.96603767 -4.04763794 15.96354675 C-4.81508015 18.08301549 -5.59391509 20.19802388 -6.375 22.3125 C-6.6428833 23.04275391 -6.9107666 23.77300781 -7.18676758 24.52539062 C-25.00480775 73.0268254 -45.94620701 112.91907487 -83 149 C-81.55461354 152.37475484 -79.75043156 154.39768869 -77.05078125 156.86328125 C-76.28572266 157.58580078 -75.52066406 158.30832031 -74.73242188 159.05273438 C-73.11868092 160.55967407 -71.49358251 162.05454218 -69.85742188 163.53710938 C-64.0731231 169.05692709 -64.0731231 169.05692709 -63.734375 173.42578125 C-65.34581437 177.9766054 -67.0072268 182.44859268 -68.9375 186.875 C-69.33718994 187.79611572 -69.73687988 188.71723145 -70.14868164 189.66625977 C-78.78863287 209.1082467 -90.99343651 226.09834192 -105 242 C-105.43876465 242.50192871 -105.8775293 243.00385742 -106.32958984 243.52099609 C-111.55314407 249.47822846 -116.90289225 254.94842517 -123 260 C-123.85851562 260.74636719 -124.71703125 261.49273437 -125.6015625 262.26171875 C-138.31108818 273.17272664 -152.14933966 282.27035302 -167 290 C-167.66580078 290.34659668 -168.33160156 290.69319336 -169.01757812 291.05029297 C-190.1951401 301.8989526 -213.13754566 308.08564454 -236.625 311.4375 C-266.17646503 315.78220994 -292.18123587 329.57040877 -310.40917969 353.5925293 C-325.33309619 374.04973816 -333.97226272 398.24742566 -339.2734375 422.82421875 C-340 426 -340 426 -341 428 C-355.19 428 -369.38 428 -384 428 C-383.37109751 419.82426766 -382.67781579 412.0616698 -381.25 404.05078125 C-381.07634918 403.05156143 -380.90269836 402.05234161 -380.7237854 401.02284241 C-380.15740824 397.78454751 -379.58006658 394.54836923 -379 391.3125 C-378.80025574 390.19151917 -378.60051147 389.07053833 -378.39471436 387.91558838 C-362.70956927 300.14810078 -339.29075109 211.36869852 -271 117 C-270.57090332 116.46503906 -270.14180664 115.93007812 -269.69970703 115.37890625 C-262.94213731 107.00678655 -255.51800039 99.31194578 -247.9375 91.6875 C-247.02766357 90.76839844 -246.11782715 89.84929687 -245.18041992 88.90234375 C-239.09391326 82.84374429 -232.73888552 77.3190231 -226 72 C-225.289646 71.43031494 -224.57929199 70.86062988 -223.84741211 70.27368164 C-207.7044887 57.38771642 -190.28917091 46.56935585 -172 37 C-170.93555664 36.4421582 -170.93555664 36.4421582 -169.84960938 35.87304688 C-118.1281834 9.1887443 -57.7300441 -0.66526299 0 0 Z M-209.1640625 115.3515625 C-211.75325534 117.76956904 -214.39511697 120.10669527 -217.0625 122.4375 C-227.2253476 131.59380359 -235.7906139 142.10156808 -244 153 C-244.51320801 153.67804688 -245.02641602 154.35609375 -245.55517578 155.0546875 C-254.21814609 166.56666022 -261.81118253 178.52253755 -269 191 C-269.42877441 191.7312207 -269.85754883 192.46244141 -270.29931641 193.21582031 C-286.5334371 220.92087061 -298.03010594 251.1214759 -308.375 281.4375 C-308.66737549 282.2828833 -308.95975098 283.1282666 -309.26098633 283.99926758 C-310.81637616 288.45696693 -310.81637616 288.45696693 -310 293 C-309.00484375 292.3709375 -308.0096875 291.741875 -306.984375 291.09375 C-285.86748522 278.03860073 -263.90361432 271.55343834 -239.5625 267.5625 C-194.1864504 260.06022515 -153.58376556 236.59928027 -126.1640625 199.14453125 C-119.26289581 190.60563731 -119.26289581 190.60563731 -116.2509613 181.01544189 C-117.08711327 178.76560392 -117.98255827 177.65397839 -119.68383789 175.97558594 C-120.24434341 175.41530701 -120.80484894 174.85502808 -121.38233948 174.277771 C-121.98964401 173.68595032 -122.59694855 173.09412964 -123.22265625 172.484375 C-123.84273056 171.86854553 -124.46280487 171.25271606 -125.10166931 170.6182251 C-127.08167905 168.65499365 -129.07186919 166.70245564 -131.0625 164.75 C-132.40758535 163.41996252 -133.75199488 162.08924121 -135.09570312 160.7578125 C-138.38934906 157.49722463 -141.69216339 154.24618812 -145 151 C-143.43283849 147.20862401 -141.06779864 144.85021242 -138.15820312 141.99462891 C-137.66678833 141.50934723 -137.17537354 141.02406555 -136.66906738 140.52407837 C-135.60285337 139.47214697 -134.53441109 138.42247036 -133.46400452 137.37480545 C-131.75852287 135.70430148 -130.06039126 134.02663987 -128.36413574 132.34677124 C-123.5403089 127.57162715 -118.70581465 122.80740482 -113.86132812 118.05322266 C-110.89348307 115.13968551 -107.93606552 112.21587382 -104.98435974 109.28599167 C-103.86890626 108.18277305 -102.74969899 107.08333396 -101.62635803 105.98814774 C-90.54999484 95.18653192 -81.89523533 83.45389563 -74.625 69.75 C-74.13128906 68.84765625 -73.63757813 67.9453125 -73.12890625 67.015625 C-69.97427613 61.1606315 -67.33081857 55.22783966 -65 49 C-115.67703619 49 -173.2183795 81.57501554 -209.1640625 115.3515625 Z" fill="#FFFFFF" transform="translate(448,42)"/>
  </svg>
</svg>
